<svg width="37" height="36" viewBox="0 0 37 36" fill="none" xmlns="http://www.w3.org/2000/svg">
<path opacity="0.12" d="M14.3789 16.5C17.6926 16.5 20.3789 13.8137 20.3789 10.5C20.3789 7.18629 17.6926 4.5 14.3789 4.5C11.0652 4.5 8.37891 7.18629 8.37891 10.5C8.37891 13.8137 11.0652 16.5 14.3789 16.5Z" fill="#0086C9"/>
<path d="M16.6289 22.5H12.1289C9.33326 22.5 7.93543 22.5 6.83281 22.9567C5.36264 23.5657 4.19459 24.7337 3.58563 26.2039C3.12891 27.3065 3.12891 28.7043 3.12891 31.5M23.3789 4.93614C25.5778 5.82622 27.1289 7.98197 27.1289 10.5M18.1287 32.25L21.1663 31.6425C21.4312 31.5895 21.5636 31.563 21.6871 31.5146C21.7967 31.4716 21.9009 31.4159 21.9975 31.3485C22.1063 31.2726 22.2017 31.1772 22.3927 30.9862L32.379 21.0001C33.2074 20.1716 33.2074 18.8284 32.3789 18C31.5505 17.1715 30.2073 17.1716 29.3789 18L19.3927 27.9862C19.2017 28.1772 19.1062 28.2727 19.0304 28.3815C18.963 28.478 18.9073 28.5822 18.8643 28.6918C18.8158 28.8152 18.7893 28.9476 18.7364 29.2125L18.1287 32.25ZM20.3789 10.5C20.3789 13.8137 17.6926 16.5 14.3789 16.5C11.0652 16.5 8.37891 13.8137 8.37891 10.5C8.37891 7.18629 11.0652 4.5 14.3789 4.5C17.6926 4.5 20.3789 7.18629 20.3789 10.5Z" stroke="#0086C9" stroke-width="2" stroke-linecap="round" stroke-linejoin="round"/>
</svg>
